<svg width="480" height="480" viewBox="0 0 480 480" fill="none" xmlns="http://www.w3.org/2000/svg">
<mask id="mask0_61_8" style="mask-type:alpha" maskUnits="userSpaceOnUse" x="0" y="0" width="480" height="480">
<path d="M480 240C480 372.548 372.548 480 240 480C107.452 480 0 372.548 0 240C0 107.452 107.452 0 240 0C372.548 0 480 107.452 480 240ZM33.2971 240C33.2971 354.159 125.841 446.703 240 446.703C354.159 446.703 446.703 354.159 446.703 240C446.703 125.841 354.159 33.2971 240 33.2971C125.841 33.2971 33.2971 125.841 33.2971 240Z" fill="white"/>
<path d="M150.405 154.419C141.089 156.893 133.956 161.113 126.605 168.534C116.924 178.284 112.121 188.543 111.174 201.494C110.811 206.951 110.883 207.751 112.703 211.462C114.814 215.754 118.38 218.519 123.038 219.538C128.279 220.629 135.703 216.773 138.105 211.68C138.76 210.37 139.56 206.805 139.924 203.676C140.798 196.983 142.763 192.617 146.839 188.543C151.424 183.886 156.665 181.776 163.361 181.703C168.164 181.703 169.547 182.067 173.696 184.104C181.848 188.106 186.215 194.8 187.307 204.986C188.253 213.426 191.965 217.864 199.534 219.465C204.775 220.629 211.689 216.991 214.382 211.68C215.765 209.061 215.911 207.824 215.547 201.712C214.455 180.466 200.189 162.058 179.591 155.365C171.658 152.745 158.12 152.309 150.405 154.419Z" fill="black"/>
<path d="M303.106 154.419C288.331 158.275 275.593 168.607 268.897 182.285C264.021 192.326 262.347 206.15 265.258 211.898C270.062 221.357 283.891 222.157 289.714 213.353C291.096 211.243 291.751 208.988 292.261 204.841C292.989 198.001 296.119 191.308 299.976 187.815C309.656 179.375 324.213 179.666 332.802 188.615C336.878 192.763 338.624 196.764 339.789 204.622C340.662 210.079 341.245 211.826 342.919 213.936C349.105 221.575 360.605 221.284 366.137 213.281C370.213 207.387 368.975 194.363 363.153 182.431C356.457 168.607 343.792 158.202 328.871 154.419C321.447 152.527 310.603 152.527 303.106 154.419Z" fill="black"/>
<path d="M129.516 289.677C123.475 292.37 119.908 298.845 120.855 305.102C121.728 310.414 131.772 323.656 143.054 334.497C180.465 370.294 235.344 382.59 284.255 366.147C292.698 363.382 309.656 355.088 316.717 350.358C332.656 339.735 349.251 323.001 357.112 309.686C361.115 302.92 358.203 293.752 350.998 290.187C346.267 287.786 342.992 287.786 338.333 290.114C335.495 291.569 333.748 293.315 329.381 299.209C313.368 320.964 289.714 336.243 262.856 342.209C254.341 344.101 233.888 344.901 225.081 343.664C217.075 342.5 204.338 339.153 197.569 336.316C179.227 328.749 162.05 315.289 150.187 299.209C145.82 293.315 144.073 291.569 141.234 290.114C136.94 287.931 133.519 287.858 129.516 289.677Z" fill="black"/>
</mask>
<g mask="url(#mask0_61_8)">
<rect width="480" height="480" fill="url(#paint0_linear_61_8)"/>
</g>
<defs>
<linearGradient id="paint0_linear_61_8" x1="240" y1="0" x2="240" y2="480" gradientUnits="userSpaceOnUse">
<stop stop-color="#FDA471"/>
<stop offset="1" stop-color="#D57880"/>
</linearGradient>
</defs>
</svg>
