<?xml version="1.0" standalone="no"?>
<!DOCTYPE svg PUBLIC "-//W3C//DTD SVG 20010904//EN"
 "http://www.w3.org/TR/2001/REC-SVG-20010904/DTD/svg10.dtd">
<svg version="1.0" xmlns="http://www.w3.org/2000/svg"
 width="700.000000pt" height="700.000000pt" viewBox="0 0 700.000000 700.000000"
 preserveAspectRatio="xMidYMid meet">
<metadata>
Created by potrace 1.14, written by Peter Selinger 2001-2017
</metadata>
<g transform="translate(0.000000,700.000000) scale(0.100000,-0.100000)"
fill="#000000" stroke="none">
<path d="M3278 6996 c-1 -2 -42 -6 -89 -10 -47 -4 -95 -8 -105 -10 -10 -2 -45
-7 -78 -11 -101 -12 -215 -35 -380 -76 -296 -75 -599 -199 -881 -362 -103 -60
-265 -165 -315 -204 -8 -6 -51 -40 -95 -74 -426 -331 -813 -825 -1020 -1299
-25 -58 -50 -114 -55 -125 -45 -93 -150 -427 -176 -560 -2 -11 -10 -54 -19
-95 -29 -147 -35 -193 -52 -370 -15 -163 -8 -592 12 -711 2 -13 6 -46 9 -74
37 -328 168 -746 339 -1085 61 -122 169 -312 187 -330 3 -3 31 -43 62 -90 170
-255 431 -534 708 -755 92 -74 370 -265 386 -265 4 0 15 -6 23 -14 46 -40 413
-212 571 -268 83 -29 268 -87 293 -92 12 -2 60 -13 107 -24 109 -27 200 -44
299 -58 25 -3 57 -8 71 -10 163 -25 682 -25 842 1 13 2 46 7 73 10 71 10 87
13 115 18 14 3 43 8 65 12 325 59 741 212 1039 384 49 28 91 51 93 51 10 0
268 180 353 247 152 119 324 280 450 422 36 41 70 79 75 85 62 67 240 317 320
450 179 298 346 717 411 1031 16 79 54 301 59 350 4 33 9 71 11 85 9 47 11
525 3 605 -15 165 -21 220 -24 225 -2 3 -6 30 -10 60 -3 30 -10 71 -15 90 -5
19 -12 51 -15 70 -13 77 -66 272 -106 390 -349 1041 -1163 1856 -2204 2208
-167 56 -419 119 -555 137 -19 3 -46 7 -60 10 -13 2 -54 7 -90 11 -36 3 -76 8
-90 11 -27 5 -536 14 -542 9z m507 -709 c17 -3 55 -8 85 -11 91 -12 95 -13
325 -62 11 -2 72 -20 135 -40 522 -164 952 -451 1322 -882 148 -171 329 -468
423 -692 64 -153 143 -397 159 -492 3 -18 12 -69 21 -112 8 -44 18 -100 21
-125 2 -25 9 -77 13 -116 14 -113 6 -495 -13 -625 -76 -524 -271 -978 -593
-1382 -50 -63 -73 -81 -73 -59 0 5 -62 159 -139 343 -76 183 -265 639 -420
1013 -156 374 -288 694 -296 710 -7 17 -23 55 -35 85 -12 30 -28 69 -35 85 -8
17 -26 59 -40 95 -15 36 -33 79 -40 95 -7 17 -61 147 -120 290 -59 143 -113
274 -121 290 -7 17 -74 179 -149 360 -75 182 -147 355 -160 385 -13 30 -65
153 -115 273 -50 120 -98 230 -108 245 -97 151 -318 182 -464 65 -43 -36 -76
-88 -121 -193 -36 -84 -113 -270 -171 -415 -20 -49 -41 -99 -46 -110 -20 -44
-50 -114 -68 -161 -41 -101 -574 -1380 -588 -1408 -8 -16 -14 -33 -14 -38 0
-5 -9 -28 -19 -51 -10 -23 -31 -71 -46 -107 -15 -36 -33 -78 -40 -95 -7 -16
-169 -406 -360 -865 -190 -459 -352 -848 -359 -865 -7 -16 -24 -56 -37 -89
l-24 -58 -58 63 c-316 341 -572 849 -661 1309 -42 219 -51 316 -51 560 0 174
6 294 19 370 3 14 7 47 11 74 3 27 8 52 10 55 1 3 6 22 9 41 12 75 18 98 42
190 24 90 77 248 113 335 68 166 252 499 284 513 4 2 7 8 7 13 0 28 220 291
345 412 456 443 1069 729 1675 782 41 4 76 8 78 10 5 5 452 -3 487 -8z m-98
-1482 c47 -115 137 -338 200 -495 63 -157 140 -346 170 -420 30 -74 107 -263
170 -420 63 -157 121 -298 128 -315 23 -55 37 -89 107 -265 38 -96 76 -188 83
-205 40 -92 245 -602 245 -610 0 -3 -57 41 -127 96 -71 56 -143 113 -162 128
-59 46 -221 174 -381 300 -85 67 -171 134 -190 149 -19 15 -57 45 -85 67 -27
22 -167 132 -310 245 -463 363 -585 462 -582 468 2 4 143 355 312 780 307 770
308 773 322 740 8 -18 53 -127 100 -243z m-832 -1924 c17 -15 48 -39 69 -56
21 -16 44 -34 50 -40 6 -5 34 -28 61 -50 28 -22 57 -45 65 -52 8 -7 200 -161
425 -343 226 -182 419 -339 430 -348 11 -10 76 -62 144 -117 181 -145 363
-292 551 -444 91 -74 207 -167 258 -209 50 -41 92 -77 92 -81 0 -22 -362 -206
-521 -265 -199 -73 -414 -126 -614 -151 -27 -4 -61 -9 -75 -12 -44 -9 -472
-11 -540 -3 -36 5 -92 12 -125 15 -48 5 -216 37 -316 60 -124 27 -404 133
-551 206 -79 40 -244 132 -256 144 -3 3 126 332 154 392 7 17 14 36 14 42 0 6
4 19 10 29 15 28 35 77 115 282 42 107 82 209 90 225 7 17 88 220 181 452
l167 423 46 -37 c25 -20 60 -48 76 -62z"/>
</g>
</svg>
